# xmcd
#
# Track frame offsets:
#	150
#	23145
#	49913
#	66413
#	92008
#	124688
#
# Disc length: 2649 seconds
#
# Revision: 1
# Processed by: cddbd v1.5.1PL2 Copyright (c) Steve Scherf et al.
# Submitted via: EasyCDDAExtractor 9.0.0.1
#
DISCID=4d0a5706
DTITLE=Blue Oyster Cult - Agora Ballroom Cleveland 08-10-73
DYEAR=1973
DGENRE=Hard Rock
TTITLE0=Screams
TTITLE1=Quicklime Girl
TTITLE2=Workshop Of The Telescopes
TTITLE3=Cities On Flame 
TTITLE4=Buck's Boogie
TTITLE5=It's Not Easy 
EXTD=
EXTT0=
EXTT1=
EXTT2=
EXTT3=
EXTT4=
EXTT5=
PLAYORDER=
